<svg version="1.2" baseProfile="tiny" viewBox="0 0 32 32" xmlns:xlink="http://www.w3.org/1999/xlink" xmlns="http://www.w3.org/2000/svg">
<path style="fill:#ffffff;" d="M29.448,13.582L20.712,10.778C20.558,10.727,20.327,10.725,20.173,10.776L14.048,12.751C13.789,13.212,13.492,13.737,13.14,14.354L12.904,14.765L19.681,12.547L19.677,27.368L12.523,29.675V15.428L11,18.08V29.725L3.65401,27.356C3.61401,25.692,3.63401,19.918,3.66601,14.815C3.42601,14.396,3.20001,14.001,3.00001,13.651C2.67001,13.071,2.39401,12.584,2.16101,12.167C2.03801,28.091,2.08701,28.157,2.38601,28.458C2.47201,28.544,2.57801,28.61,2.69401,28.647L11.428,31.463C11.579,31.511,11.787,31.511,11.938,31.463L20.439,28.722L28.983,31.463C29.059,31.488,29.138,31.5,29.216,31.5C29.375,31.5,29.533,31.45,29.665,31.353C29.862,31.21,29.978,30.981,29.978,30.738V14.307C29.977,13.976,29.763,13.683,29.448,13.582ZM28.454,29.694L21.2,27.368L21.204,12.536L28.453,14.862V29.694H28.454Z M2.51701,9.148C2.61601,9.388,2.85001,9.85,3.39901,10.841C3.67701,11.342,4.03701,11.982,4.50101,12.797C5.17001,13.973,6.05401,15.51,7.23301,17.546C7.47301,17.96,7.85201,18.198,8.27501,18.198C8.69801,18.198,9.07701,17.961,9.31701,17.546C9.90601,16.527,10.416,15.641,10.869,14.851C11.149,14.362,11.408,13.911,11.641,13.5C13.342,10.514,13.874,9.5,14.037,9.086L14.047,9.09C14.351,8.341,14.506,7.551,14.506,6.74C14.506,3.299,11.706,0.5,8.26501,0.5C4.82401,0.5,2.02301,3.299,2.02301,6.74C2.02301,7.575,2.18601,8.386,2.50701,9.151L2.51701,9.148ZM8.26501,2.206C10.765,2.206,12.799,4.24,12.799,6.74C12.799,7.329,12.687,7.903,12.466,8.446C12.466,8.446,11.241,10.671,9.96101,12.957C9.70601,13.412,9.45001,13.869,9.19901,14.311C8.87201,14.89,8.55601,15.445,8.27401,15.936C7.84801,15.197,7.38001,14.384,6.91601,13.575C6.53101,12.903,6.15001,12.235,5.79701,11.614C4.98701,10.19,4.32901,9.014,4.14001,8.631L4.08201,8.492C3.84901,7.936,3.73101,7.347,3.73101,6.74C3.73101,4.24,5.76501,2.206,8.26501,2.206Z M8.26502,8.658C9.48902,8.658,10.484,7.663,10.484,6.439C10.484,5.215,9.48802,4.22,8.26502,4.22C7.04202,4.22,6.04602,5.215,6.04602,6.439C6.04602,7.663,7.04102,8.658,8.26502,8.658ZM8.26502,5.743C8.64902,5.743,8.96102,6.055,8.96102,6.439C8.96102,6.823,8.64902,7.135,8.26502,7.135C7.88102,7.135,7.56902,6.823,7.56902,6.439C7.56902,6.055,7.88102,5.743,8.26502,5.743Z"/>
</svg>